<svg id="Ebene_1" data-name="Ebene 1" xmlns="http://www.w3.org/2000/svg" viewBox="0 0 857.02 159.53"><defs><style>.cls-1{fill:#ef7d00;}.cls-2{fill:#363636;}</style></defs><path class="cls-1" d="M294.45,38.34c0-1.35-.81-1.92-2.42-1.92h-2.52v6.66h1.09V40.23h1l1.72,2.85h1.23l-1.86-2.93A1.69,1.69,0,0,0,294.45,38.34Zm-3.85,1V37.36h1.32c.66,0,1.44.09,1.44.89,0,1-.72,1-1.54,1Z"/><path class="cls-1" d="M291.79,33.63a5.82,5.82,0,0,0-5.91,6,5.9,5.9,0,1,0,11.79,0A5.82,5.82,0,0,0,291.79,33.63Zm0,11c-2.86,0-4.63-2.23-4.63-5a4.62,4.62,0,1,1,9.22,0A4.64,4.64,0,0,1,291.79,44.6Z"/><path class="cls-1" d="M284.81,69.14a21.19,21.19,0,0,0-7.56-6.43h0c-8.4-4.42-20.79-5.4-35.28-5.4-10.7,0-14.05-3.86-14.05-10,0-4.1,3.92-13.63,21.82-13.66,14.73,0,22.44,8.13,22.09,12.11h12.71c.5-16.29-20.1-24.82-34.82-24.8-22.09,0-34.49,10.89-34.49,26.66,0,6.16,1.56,11.32,5,15.12h0c2.8,3.09,6.85,5.29,12.33,6.43h-20V62.71h0V21.06H200.33V69.14H137.4c0-.39,0-.78,0-1.18V62.71h0V21.06H123.83l0,41.65h0v6.43H122.1V21.06H109.46V35a43.29,43.29,0,0,0-31.71-14c-23,0-41.83,18.25-44.12,41.65a47.62,47.62,0,0,0-.23,4.8c0,.54,0,1.09,0,1.63H31.66V21.06H19V62.71h0v6.43H0v2.61H19V95h0v19h12.7V95h0V71.75h1.92A47.48,47.48,0,0,0,42,95h0a43.1,43.1,0,0,0,67.48,5v13.7a35.5,35.5,0,0,1-2.92,13.58h0c-5,11.59-16,19.63-28.79,19.63S54,138.85,49,127.26h0A35.5,35.5,0,0,1,46,113.68H33.39a48.56,48.56,0,0,0,2.1,13.58C41.22,146,58,159.53,77.75,159.53S114.28,146,120,127.26h0a48.43,48.43,0,0,0,2.1-13.57V71.75H124A47.48,47.48,0,0,0,132.42,95h0a43.71,43.71,0,0,0,35.77,19,43.23,43.23,0,0,0,31.63-13.89V114h12.72V95h0V71.75h52.61c9.2,2.09,11,6.06,11,11.86A14.3,14.3,0,0,1,271.22,95h0c-4.54,3.94-12,5.84-21.5,5.84-8.37,0-14.41-2.45-18.25-5.85h0c-3.69-3.25-5.36-7.37-5.15-11H213.6a24.61,24.61,0,0,0,2.18,11h0c5.06,11.2,18.35,18.55,33.94,18.55,13.48,0,31.1-4,37-18.55h0a29.5,29.5,0,0,0,2.06-11.41,26.39,26.39,0,0,0-2.46-11.82h21.36V69.14ZM96.9,95h0A30.11,30.11,0,0,1,60,95h0A34.25,34.25,0,0,1,47,71.75h62.93A34.23,34.23,0,0,1,96.9,95Zm13.2-25.84H46.75c0-.55,0-1.1,0-1.66A37.47,37.47,0,0,1,47,62.71h0C49.2,46.28,62.43,33.64,78.43,33.64s29.22,12.64,31.4,29.07a37.47,37.47,0,0,1,.31,4.77C110.14,68,110.13,68.59,110.1,69.14ZM187.35,95a30.1,30.1,0,0,1-37,0h0a34.25,34.25,0,0,1-13-23.23h62.93A34.25,34.25,0,0,1,187.35,95Z"/><path class="cls-1" d="M25.31,12.65A6.33,6.33,0,1,0,19,6.33,6.33,6.33,0,0,0,25.31,12.65Z"/><path class="cls-2" d="M339.18,70.78h8.66v5.78h.24c2.81-4.09,6.1-6.9,12.76-6.9,5.06,0,9.79,2.17,11.64,6.9,3.13-4.25,6.9-6.9,13-6.9,8.75,0,13.88,3.93,13.88,14v28.65h-9.15V88c0-6.66-.4-11.16-7.54-11.16-6.18,0-8.83,4-8.83,11.08v24.31h-9.15V85.63c0-5.78-1.76-8.75-7.3-8.75-4.73,0-9.07,3.94-9.07,10.76v24.63h-9.14Z"/><path class="cls-2" d="M402.25,91.49c0-12.6,7.7-21.83,20.94-21.83s20.95,9.23,20.95,21.83c0,12.76-7.71,21.9-20.95,21.9S402.25,104.25,402.25,91.49Zm32.74,0c0-7.14-3.61-14.61-11.8-14.61S411.4,84.35,411.4,91.49s3.61,14.68,11.79,14.68S435,98.71,435,91.49Z"/><path class="cls-2" d="M442.77,70.78h6.9V58.34h9.15V70.78h8.26V77.6h-8.26V99.75c0,3.78.32,5.7,4.41,5.7a15.62,15.62,0,0,0,3.85-.32v7.06a49.37,49.37,0,0,1-5.93.48c-9.64,0-11.24-3.69-11.48-10.59V77.6h-6.9Z"/><path class="cls-2" d="M470.69,55h9.15v8.67h-9.15Zm0,15.81h9.15v41.49h-9.15Z"/><path class="cls-2" d="M483.05,91.49c0-12.6,7.7-21.83,20.94-21.83s21,9.23,21,21.83c0,12.76-7.71,21.9-21,21.9S483.05,104.25,483.05,91.49Zm32.74,0c0-7.14-3.61-14.61-11.8-14.61S492.2,84.35,492.2,91.49s3.61,14.68,11.79,14.68S515.79,98.71,515.79,91.49Z"/><path class="cls-2" d="M527.74,70.78h8.67v6.1l.16.16a15,15,0,0,1,12.92-7.38c9.07,0,14.69,4.73,14.69,14.12v28.49H555V86.19c-.24-6.5-2.65-9.31-8.11-9.31-6.1,0-10,4.82-10,10.91v24.48h-9.15Z"/><path class="cls-2" d="M593.35,70.78H602V76.4h.15c2.57-4.82,7.47-6.74,12.85-6.74,13.07,0,19.42,9.87,19.42,22.07,0,11.23-5.7,21.66-17.9,21.66-5.3,0-11.07-1.92-13.88-6.5h-.16V127.6h-9.15Zm20.46,6.1c-7.7,0-11.64,5.78-11.64,14.69,0,8.34,4.26,14.6,11.64,14.6,8.35,0,11.48-7.38,11.48-14.6C625.29,84.1,621.35,76.88,613.81,76.88Z"/><path class="cls-2" d="M637.56,55h9.15v57.3h-9.15Z"/><path class="cls-2" d="M686.59,103c0,2.25.48,3.13,2.17,3.13A11.09,11.09,0,0,0,691,106v6.34a23.13,23.13,0,0,1-5.78,1c-3.77,0-6.34-1.28-7.06-5-3.61,3.53-9.47,5-14.37,5-7.62,0-14.2-4-14.2-12.11,0-10.19,7.94-12,15.57-12.92l5.05-.65c5.62-.72,7.79-1.6,7.79-5.21,0-4.82-5-5.62-8.59-5.62-5.14,0-8.75,2.09-9.15,6.58h-9.15c.65-10.67,9.63-13.8,18.86-13.8,8.11,0,16.61,3.29,16.61,12Zm-9.14-11.55c-1.85,1.12-3.21,1.44-7.07,1.92l-3.69.48c-4.17.57-7.94,2.17-7.94,6.58,0,4.18,3.93,5.7,7.86,5.7,4.81,0,10.84-2.08,10.84-7.86Z"/><path class="cls-2" d="M701.75,99c.57,5.38,4.5,7.22,9.39,7.22,3.53,0,9.47-.72,9.23-5.46s-6.9-5.37-13.56-6.9S693.49,90,693.49,81.54c0-9.07,9.79-11.88,17.33-11.88,8.51,0,16.29,3.45,17.34,12.76h-9.55c-.89-4.42-4.33-5.54-8.43-5.54-2.65,0-7.54.64-7.54,4.26,0,4.49,6.74,5.21,13.48,6.65s13.4,3.94,13.4,12.12c0,9.87-9.95,13.48-18.54,13.48-10.51,0-18.13-4.65-18.37-14.44Z"/><path class="cls-2" d="M729.12,70.78H736V58.34h9.15V70.78h8.26V77.6h-8.26V99.75c0,3.78.32,5.7,4.41,5.7a15.66,15.66,0,0,0,3.85-.32v7.06a49.36,49.36,0,0,1-5.94.48c-9.63,0-11.23-3.69-11.47-10.59V77.6h-6.9Z"/><path class="cls-2" d="M757,55h9.15v8.67H757Zm0,15.81h9.15v41.49H757Z"/><path class="cls-2" d="M797.72,84.67c-.72-5.14-4.33-7.79-9.46-7.79-4.74,0-11.4,2.57-11.4,15.09,0,6.9,3,14.2,11,14.2,5.37,0,9-3.45,9.86-9.47h9.15c-1.68,10.83-8.34,16.69-19,16.69-13,0-20.15-9.22-20.15-21.42,0-12.52,6.83-22.31,20.47-22.31,9.63,0,17.81,4.81,18.69,15Z"/><path class="cls-2" d="M818,99c.56,5.38,4.5,7.22,9.39,7.22,3.53,0,9.47-.72,9.23-5.46s-6.9-5.37-13.56-6.9S809.76,90,809.76,81.54c0-9.07,9.79-11.88,17.33-11.88,8.51,0,16.29,3.45,17.34,12.76h-9.55c-.89-4.42-4.34-5.54-8.43-5.54-2.65,0-7.54.64-7.54,4.26,0,4.49,6.74,5.21,13.48,6.65s13.4,3.94,13.4,12.12c0,9.87-9.95,13.48-18.54,13.48-10.51,0-18.13-4.65-18.38-14.44Z"/><path class="cls-2" d="M851.33,82.4a5.6,5.6,0,0,1-5.73-5.82,5.71,5.71,0,1,1,5.73,5.82Zm0-10.62a4.5,4.5,0,0,0-4.48,4.8c0,2.65,1.71,4.81,4.48,4.81a4.82,4.82,0,0,0,0-9.61Zm-1.15,8.13h-1.06V73.47h2.44c1.56,0,2.35.55,2.35,1.85a1.66,1.66,0,0,1-1.68,1.76l1.8,2.83h-1.19l-1.67-2.75h-1Zm1.18-3.65c.79,0,1.49-.08,1.49-1s-.77-.87-1.4-.87h-1.27v1.88Z"/></svg>